<svg width="228" height="21" viewBox="0 0 228 21" fill="none" xmlns="http://www.w3.org/2000/svg">
<g style="mix-blend-mode:overlay">
<mask id="path-1-outside-1_373_1974" maskUnits="userSpaceOnUse" x="1.18758" y="4.94444" width="116.613" height="10.6852" fill="black">
<rect fill="white" x="1.18758" y="4.94444" width="116.613" height="10.6852"/>
<path d="M7.60524 5.25732H16.7643L16.5202 6.25581H7.59122C6.62469 6.25581 5.70973 6.98604 5.4838 7.91002C5.25788 8.83399 5.81573 9.56423 6.78227 9.56423H13.3486C14.8828 9.56423 15.7835 10.7117 15.4191 12.202C15.0547 13.6923 13.5928 14.8398 12.0586 14.8398H2.60805L2.84855 13.8562H12.069C13.0202 13.8562 13.9351 13.126 14.1611 12.202C14.387 11.278 13.8291 10.5478 12.8779 10.5478H6.31164C4.77746 10.5478 3.87672 9.40029 4.24112 7.91002C4.60551 6.41974 6.07106 5.25732 7.60524 5.25732ZM18.6734 5.25732H30.8548L30.6107 6.25581H25.149L23.0501 14.8398H21.792L23.8909 6.25581H18.4293L18.6734 5.25732ZM35.2065 6.67308L30.4936 11.5165H37.5661L35.2065 6.67308ZM35.3072 5.25732H35.8134L40.6504 14.8398H39.2543L38.0254 12.3361H29.6335L27.1803 14.8398H25.7841L35.3072 5.25732ZM45.8459 6.25581L44.8949 10.1454H52.8112C53.9465 10.1454 55.0134 9.29598 55.2794 8.20807C55.549 7.10526 54.8976 6.25581 53.7623 6.25581H45.8459ZM44.8474 5.25732H54.2366C55.9395 5.25732 56.9455 6.53896 56.5374 8.20807C56.1621 9.74306 54.7163 10.9502 53.1493 11.0843L54.9159 14.8398H53.6578L51.9227 11.1439H44.6507L43.747 14.8398H42.5043L44.8474 5.25732ZM63.9153 5.25732H71.4022L71.158 6.25581H63.9013C61.6921 6.25581 59.5847 7.91002 59.06 10.056C58.5352 12.202 59.8337 13.8562 62.0429 13.8562H68.0416L68.8797 10.4286H60.8866L61.0688 9.68345H70.3199L69.0591 14.8398H61.5723C58.7801 14.8398 57.1577 12.7534 57.8173 10.056C58.4805 7.34371 61.1231 5.25732 63.9153 5.25732ZM73.7332 5.25732H74.9758L72.8733 13.8562H82.2625L82.022 14.8398H71.3901L73.7332 5.25732ZM90.0753 6.25581C87.8661 6.25581 85.7587 7.91002 85.2339 10.056C84.7092 12.202 86.0077 13.8562 88.2169 13.8562H91.5154C93.7246 13.8562 95.832 12.202 96.3568 10.056C96.8815 7.91002 95.583 6.25581 93.3738 6.25581H90.0753ZM90.0893 5.25732H93.8481C96.6403 5.25732 98.2627 7.34371 97.5995 10.056C96.9399 12.7534 94.2972 14.8398 91.505 14.8398H87.7463C84.9541 14.8398 83.3317 12.7534 83.9913 10.056C84.6545 7.34371 87.2971 5.25732 90.0893 5.25732ZM99.2629 5.25732H100.536L102.294 13.126L107.9 5.25732H108.591L110.349 13.126L115.955 5.25732H117.167L110.237 14.8398H109.546L107.777 7.01585L102.182 14.8398H101.492L99.2629 5.25732Z"/>
</mask>
<path d="M7.60524 5.25732H16.7643L16.5202 6.25581H7.59122C6.62469 6.25581 5.70973 6.98604 5.4838 7.91002C5.25788 8.83399 5.81573 9.56423 6.78227 9.56423H13.3486C14.8828 9.56423 15.7835 10.7117 15.4191 12.202C15.0547 13.6923 13.5928 14.8398 12.0586 14.8398H2.60805L2.84855 13.8562H12.069C13.0202 13.8562 13.9351 13.126 14.1611 12.202C14.387 11.278 13.8291 10.5478 12.8779 10.5478H6.31164C4.77746 10.5478 3.87672 9.40029 4.24112 7.91002C4.60551 6.41974 6.07106 5.25732 7.60524 5.25732ZM18.6734 5.25732H30.8548L30.6107 6.25581H25.149L23.0501 14.8398H21.792L23.8909 6.25581H18.4293L18.6734 5.25732ZM35.2065 6.67308L30.4936 11.5165H37.5661L35.2065 6.67308ZM35.3072 5.25732H35.8134L40.6504 14.8398H39.2543L38.0254 12.3361H29.6335L27.1803 14.8398H25.7841L35.3072 5.25732ZM45.8459 6.25581L44.8949 10.1454H52.8112C53.9465 10.1454 55.0134 9.29598 55.2794 8.20807C55.549 7.10526 54.8976 6.25581 53.7623 6.25581H45.8459ZM44.8474 5.25732H54.2366C55.9395 5.25732 56.9455 6.53896 56.5374 8.20807C56.1621 9.74306 54.7163 10.9502 53.1493 11.0843L54.9159 14.8398H53.6578L51.9227 11.1439H44.6507L43.747 14.8398H42.5043L44.8474 5.25732ZM63.9153 5.25732H71.4022L71.158 6.25581H63.9013C61.6921 6.25581 59.5847 7.91002 59.06 10.056C58.5352 12.202 59.8337 13.8562 62.0429 13.8562H68.0416L68.8797 10.4286H60.8866L61.0688 9.68345H70.3199L69.0591 14.8398H61.5723C58.7801 14.8398 57.1577 12.7534 57.8173 10.056C58.4805 7.34371 61.1231 5.25732 63.9153 5.25732ZM73.7332 5.25732H74.9758L72.8733 13.8562H82.2625L82.022 14.8398H71.3901L73.7332 5.25732ZM90.0753 6.25581C87.8661 6.25581 85.7587 7.91002 85.2339 10.056C84.7092 12.202 86.0077 13.8562 88.2169 13.8562H91.5154C93.7246 13.8562 95.832 12.202 96.3568 10.056C96.8815 7.91002 95.583 6.25581 93.3738 6.25581H90.0753ZM90.0893 5.25732H93.8481C96.6403 5.25732 98.2627 7.34371 97.5995 10.056C96.9399 12.7534 94.2972 14.8398 91.505 14.8398H87.7463C84.9541 14.8398 83.3317 12.7534 83.9913 10.056C84.6545 7.34371 87.2971 5.25732 90.0893 5.25732ZM99.2629 5.25732H100.536L102.294 13.126L107.9 5.25732H108.591L110.349 13.126L115.955 5.25732H117.167L110.237 14.8398H109.546L107.777 7.01585L102.182 14.8398H101.492L99.2629 5.25732Z" fill="white"/>
<path d="M16.7643 5.25732H17.0655L17.137 4.96474H16.8358L16.7643 5.25732ZM16.5202 6.25581L16.4486 6.54838H16.7498L16.8214 6.25581H16.5202ZM2.60805 14.8398H2.30686L2.23532 15.1324H2.53652L2.60805 14.8398ZM2.84855 13.8562L2.92009 13.5637H2.6189L2.54736 13.8562H2.84855ZM7.5337 5.54989H16.6928L16.8358 4.96474H7.67678L7.5337 5.54989ZM16.4631 5.25732L16.219 6.25581H16.8214L17.0655 5.25732H16.4631ZM16.5917 5.96323H7.66276L7.51968 6.54838H16.4486L16.5917 5.96323ZM7.66276 5.96323C6.5281 5.96323 5.44762 6.82619 5.18261 7.91002H5.785C5.97183 7.14589 6.72127 6.54838 7.51968 6.54838L7.66276 5.96323ZM5.18261 7.91002C4.9176 8.99384 5.57607 9.8568 6.71073 9.8568L6.85381 9.27165C6.0554 9.27165 5.59816 8.67414 5.785 7.91002H5.18261ZM6.71073 9.8568H13.277L13.4201 9.27165H6.85381L6.71073 9.8568ZM13.277 9.8568C14.6449 9.8568 15.4428 10.8733 15.1179 12.202H15.7203C16.1242 10.5502 15.1206 9.27165 13.4201 9.27165L13.277 9.8568ZM15.1179 12.202C14.793 13.5307 13.498 14.5472 12.1302 14.5472L11.9871 15.1324C13.6876 15.1324 15.3164 13.8539 15.7203 12.202H15.1179ZM12.1302 14.5472H2.67959L2.53652 15.1324H11.9871L12.1302 14.5472ZM2.90925 14.8398L3.14975 13.8562H2.54736L2.30686 14.8398H2.90925ZM2.77702 14.1488H11.9975L12.1405 13.5637H2.92009L2.77702 14.1488ZM11.9975 14.1488C13.1185 14.1488 14.1977 13.2841 14.4623 12.202H13.8599C13.6726 12.9679 12.9218 13.5637 12.1405 13.5637L11.9975 14.1488ZM14.4623 12.202C14.7268 11.1199 14.0706 10.2552 12.9495 10.2552L12.8064 10.8404C13.5877 10.8404 14.0471 11.4362 13.8599 12.202H14.4623ZM12.9495 10.2552H6.38318L6.2401 10.8404H12.8064L12.9495 10.2552ZM6.38318 10.2552C5.01534 10.2552 4.21743 9.23871 4.54231 7.91002H3.93992C3.53602 9.56188 4.53958 10.8404 6.2401 10.8404L6.38318 10.2552ZM4.54231 7.91002C4.86772 6.57915 6.16809 5.54989 7.5337 5.54989L7.67678 4.96474C5.97403 4.96474 4.3433 6.26032 3.93992 7.91002H4.54231ZM18.6734 5.25732L18.7449 4.96474H18.4437L18.3722 5.25732H18.6734ZM30.8548 5.25732H31.156L31.2275 4.96474H30.9263L30.8548 5.25732ZM30.6107 6.25581L30.5391 6.54838H30.8403L30.9119 6.25581H30.6107ZM25.149 6.25581L25.2205 5.96323H24.9193L24.8478 6.25581H25.149ZM23.0501 14.8398L22.9785 15.1324H23.2797L23.3513 14.8398H23.0501ZM21.792 14.8398H21.4908L21.4193 15.1324H21.7205L21.792 14.8398ZM23.8909 6.25581H24.1921L24.2637 5.96323H23.9625L23.8909 6.25581ZM18.4293 6.25581H18.1281L18.0565 6.54838H18.3577L18.4293 6.25581ZM18.6019 5.54989H30.7833L30.9263 4.96474H18.7449L18.6019 5.54989ZM30.5536 5.25732L30.3095 6.25581H30.9119L31.156 5.25732H30.5536ZM30.6822 5.96323H25.2205L25.0774 6.54838H30.5391L30.6822 5.96323ZM24.8478 6.25581L22.7489 14.8398H23.3513L25.4502 6.25581H24.8478ZM23.1216 14.5472H21.8636L21.7205 15.1324H22.9785L23.1216 14.5472ZM22.0932 14.8398L24.1921 6.25581H23.5898L21.4908 14.8398H22.0932ZM23.9625 5.96323H18.5008L18.3577 6.54838H23.8194L23.9625 5.96323ZM18.7305 6.25581L18.9746 5.25732H18.3722L18.1281 6.25581H18.7305ZM35.2065 6.67308L35.4934 6.50358L35.3296 6.16734L35.0019 6.50407L35.2065 6.67308ZM30.4936 11.5165L30.289 11.3475L29.8399 11.8091H30.422L30.4936 11.5165ZM37.5661 11.5165L37.4946 11.8091H38.0782L37.8531 11.347L37.5661 11.5165ZM35.3072 5.25732L35.3787 4.96474H35.2254L35.1057 5.08515L35.3072 5.25732ZM35.8134 5.25732L36.0991 5.08515L36.0383 4.96474H35.885L35.8134 5.25732ZM40.6504 14.8398L40.5788 15.1324H41.1706L40.936 14.6676L40.6504 14.8398ZM39.2543 14.8398L38.9676 15.0099L39.0277 15.1324H39.1827L39.2543 14.8398ZM38.0254 12.3361L38.3121 12.1661L38.252 12.0436H38.097L38.0254 12.3361ZM29.6335 12.3361L29.705 12.0436H29.55L29.4299 12.1661L29.6335 12.3361ZM27.1803 14.8398L27.1087 15.1324H27.2637L27.3838 15.0099L27.1803 14.8398ZM25.7841 14.8398L25.5827 14.6676L25.1209 15.1324H25.7126L25.7841 14.8398ZM35.0019 6.50407L30.289 11.3475L30.6981 11.6855L35.411 6.84209L35.0019 6.50407ZM30.422 11.8091H37.4946L37.6377 11.2239H30.5651L30.422 11.8091ZM37.8531 11.347L35.4934 6.50358L34.9195 6.84258L37.2792 11.686L37.8531 11.347ZM35.2356 5.54989H35.7419L35.885 4.96474H35.3787L35.2356 5.54989ZM35.5278 5.42949L40.3648 15.012L40.936 14.6676L36.0991 5.08515L35.5278 5.42949ZM40.7219 14.5472H39.3258L39.1827 15.1324H40.5788L40.7219 14.5472ZM39.5409 14.6698L38.3121 12.1661L37.7388 12.5062L38.9676 15.0099L39.5409 14.6698ZM38.097 12.0436H29.705L29.5619 12.6287H37.9539L38.097 12.0436ZM29.4299 12.1661L26.9767 14.6698L27.3838 15.0099L29.837 12.5062L29.4299 12.1661ZM27.2518 14.5472H25.8557L25.7126 15.1324H27.1087L27.2518 14.5472ZM25.9856 15.012L35.5086 5.42949L35.1057 5.08515L25.5827 14.6676L25.9856 15.012ZM45.8459 6.25581L45.9175 5.96323H45.6163L45.5447 6.25581H45.8459ZM44.8949 10.1454H44.5937L44.5221 10.438H44.8233L44.8949 10.1454ZM44.8474 5.25732L44.9189 4.96474H44.6177L44.5462 5.25732H44.8474ZM53.1493 11.0843L53.1936 10.7929L52.6668 10.838L52.8611 11.2512L53.1493 11.0843ZM54.9159 14.8398L54.8443 15.1324H55.4202L55.2041 14.6729L54.9159 14.8398ZM53.6578 14.8398L53.3696 15.0066L53.4287 15.1324H53.5863L53.6578 14.8398ZM51.9227 11.1439L52.211 10.9772L52.1519 10.8513H51.9943L51.9227 11.1439ZM44.6507 11.1439L44.7223 10.8513H44.4211L44.3495 11.1439H44.6507ZM43.747 14.8398L43.6755 15.1324H43.9767L44.0482 14.8398H43.747ZM42.5043 14.8398H42.2031L42.1316 15.1324H42.4328L42.5043 14.8398ZM45.5447 6.25581L44.5937 10.1454H45.1961L46.1471 6.25581H45.5447ZM44.8233 10.438H52.7397L52.8828 9.85286H44.9664L44.8233 10.438ZM52.7397 10.438C54.0429 10.438 55.2754 9.45608 55.5806 8.20807H54.9782C54.7513 9.13587 53.8502 9.85286 52.8828 9.85286L52.7397 10.438ZM55.5806 8.20807C55.889 6.94664 55.1385 5.96323 53.8338 5.96323L53.6908 6.54838C54.6567 6.54838 55.2091 7.26389 54.9782 8.20807H55.5806ZM53.8338 5.96323H45.9175L45.7744 6.54838H53.6908L53.8338 5.96323ZM44.7758 5.54989H54.165L54.3081 4.96474H44.9189L44.7758 5.54989ZM54.165 5.54989C55.7006 5.54989 56.6051 6.69957 56.2362 8.20807H56.8386C57.286 6.37835 56.1784 4.96474 54.3081 4.96474L54.165 5.54989ZM56.2362 8.20807C55.8978 9.59211 54.6015 10.6724 53.1936 10.7929L53.1051 11.3757C54.8311 11.228 56.4264 9.89401 56.8386 8.20807H56.2362ZM52.8611 11.2512L54.6277 15.0067L55.2041 14.6729L53.4375 10.9174L52.8611 11.2512ZM54.9874 14.5472H53.7294L53.5863 15.1324H54.8443L54.9874 14.5472ZM53.9461 14.6731L52.211 10.9772L51.6345 11.3107L53.3696 15.0066L53.9461 14.6731ZM51.9943 10.8513H44.7223L44.5792 11.4365H51.8512L51.9943 10.8513ZM44.3495 11.1439L43.4458 14.8398H44.0482L44.9519 11.1439H44.3495ZM43.8186 14.5472H42.5759L42.4328 15.1324H43.6755L43.8186 14.5472ZM42.8055 14.8398L45.1486 5.25732H44.5462L42.2031 14.8398H42.8055ZM71.4022 5.25732H71.7033L71.7749 4.96474H71.4737L71.4022 5.25732ZM71.158 6.25581L71.0865 6.54838H71.3877L71.4592 6.25581H71.158ZM68.0416 13.8562L67.97 14.1488H68.2712L68.3428 13.8562H68.0416ZM68.8797 10.4286H69.1809L69.2524 10.136H68.9512L68.8797 10.4286ZM60.8866 10.4286H60.5854L60.5139 10.7212H60.8151L60.8866 10.4286ZM61.0688 9.68345L61.1403 9.39087H60.8391L60.7676 9.68345H61.0688ZM70.3199 9.68345H70.6211L70.6926 9.39087H70.3914L70.3199 9.68345ZM69.0591 14.8398L68.9876 15.1324H69.2888L69.3603 14.8398H69.0591ZM63.8438 5.54989H71.3306L71.4737 4.96474H63.9869L63.8438 5.54989ZM71.101 5.25732L70.8568 6.25581H71.4592L71.7033 5.25732H71.101ZM71.2296 5.96323H63.9729L63.8298 6.54838H71.0865L71.2296 5.96323ZM63.9729 5.96323C61.5973 5.96323 59.323 7.74843 58.7588 10.056H59.3612C59.8464 8.0716 61.7869 6.54838 63.8298 6.54838L63.9729 5.96323ZM58.7588 10.056C58.1945 12.3636 59.5958 14.1488 61.9714 14.1488L62.1145 13.5637C60.0716 13.5637 58.8759 12.0404 59.3612 10.056H58.7588ZM61.9714 14.1488H67.97L68.1131 13.5637H62.1145L61.9714 14.1488ZM68.3428 13.8562L69.1809 10.4286H68.5785L67.7404 13.8562H68.3428ZM68.9512 10.136H60.9581L60.8151 10.7212H68.8081L68.9512 10.136ZM61.1878 10.4286L61.37 9.68345H60.7676L60.5854 10.4286H61.1878ZM60.9973 9.97602H70.2484L70.3914 9.39087H61.1403L60.9973 9.97602ZM70.0187 9.68345L68.7579 14.8398H69.3603L70.6211 9.68345H70.0187ZM69.1306 14.5472H61.6438L61.5008 15.1324H68.9876L69.1306 14.5472ZM61.6438 14.5472C59.0186 14.5472 57.4983 12.5924 58.1185 10.056H57.5161C56.8172 12.9144 58.5416 15.1324 61.5008 15.1324L61.6438 14.5472ZM58.1185 10.056C58.7424 7.5041 61.2192 5.54989 63.8438 5.54989L63.9869 4.96474C61.0271 4.96474 58.2185 7.18332 57.5161 10.056H58.1185ZM73.7332 5.25732L73.8047 4.96474H73.5035L73.432 5.25732H73.7332ZM74.9758 5.25732H75.277L75.3486 4.96474H75.0474L74.9758 5.25732ZM72.8733 13.8562H72.5721L72.5006 14.1488H72.8018L72.8733 13.8562ZM82.2625 13.8562H82.5637L82.6352 13.5637H82.334L82.2625 13.8562ZM82.022 14.8398L81.9504 15.1324H82.2516L82.3232 14.8398H82.022ZM71.3901 14.8398H71.0889L71.0174 15.1324H71.3186L71.3901 14.8398ZM73.6616 5.54989H74.9043L75.0474 4.96474H73.8047L73.6616 5.54989ZM74.6746 5.25732L72.5721 13.8562H73.1745L75.277 5.25732H74.6746ZM72.8018 14.1488H82.1909L82.334 13.5637H72.9448L72.8018 14.1488ZM81.9613 13.8562L81.7208 14.8398H82.3232L82.5637 13.8562H81.9613ZM82.0935 14.5472H71.4616L71.3186 15.1324H81.9504L82.0935 14.5472ZM71.6913 14.8398L74.0343 5.25732H73.432L71.0889 14.8398H71.6913ZM90.1469 5.96323C87.7713 5.96323 85.497 7.74843 84.9328 10.056H85.5351C86.0204 8.0716 87.9609 6.54838 90.0038 6.54838L90.1469 5.96323ZM84.9328 10.056C84.3685 12.3636 85.7698 14.1488 88.1454 14.1488L88.2885 13.5637C86.2456 13.5637 85.0499 12.0404 85.5351 10.056H84.9328ZM88.1454 14.1488H91.4439L91.5869 13.5637H88.2885L88.1454 14.1488ZM91.4439 14.1488C93.8194 14.1488 96.0937 12.3636 96.658 10.056H96.0556C95.5704 12.0404 93.6298 13.5637 91.5869 13.5637L91.4439 14.1488ZM96.658 10.056C97.2222 7.74843 95.8209 5.96323 93.4453 5.96323L93.3023 6.54838C95.3451 6.54838 96.5408 8.0716 96.0556 10.056H96.658ZM93.4453 5.96323H90.1469L90.0038 6.54838H93.3023L93.4453 5.96323ZM90.0178 5.54989H93.7765L93.9196 4.96474H90.1609L90.0178 5.54989ZM93.7765 5.54989C96.4012 5.54989 97.9222 7.5041 97.2983 10.056H97.9006C98.6031 7.18332 96.8794 4.96474 93.9196 4.96474L93.7765 5.54989ZM97.2983 10.056C96.6781 12.5924 94.2018 14.5472 91.5766 14.5472L91.4335 15.1324C94.3927 15.1324 97.2017 12.9144 97.9006 10.056H97.2983ZM91.5766 14.5472H87.8178L87.6747 15.1324H91.4335L91.5766 14.5472ZM87.8178 14.5472C85.1926 14.5472 83.6723 12.5924 84.2925 10.056H83.6901C82.9912 12.9144 84.7156 15.1324 87.6747 15.1324L87.8178 14.5472ZM84.2925 10.056C84.9164 7.5041 87.3932 5.54989 90.0178 5.54989L90.1609 4.96474C87.2011 4.96474 84.3925 7.18332 83.6901 10.056H84.2925ZM99.2629 5.25732L99.3344 4.96474H98.8629L98.9595 5.38034L99.2629 5.25732ZM100.536 5.25732L100.84 5.13625L100.802 4.96474H100.608L100.536 5.25732ZM102.294 13.126L101.991 13.2471L102.121 13.833L102.539 13.2471L102.294 13.126ZM107.9 5.25732L107.972 4.96474H107.778L107.656 5.13625L107.9 5.25732ZM108.591 5.25732L108.895 5.13625L108.856 4.96474H108.662L108.591 5.25732ZM110.349 13.126L110.045 13.2471L110.176 13.833L110.593 13.2471L110.349 13.126ZM115.955 5.25732L116.026 4.96474H115.832L115.71 5.13625L115.955 5.25732ZM117.167 5.25732L117.41 5.38068L117.711 4.96474H117.238L117.167 5.25732ZM110.237 14.8398L110.165 15.1324H110.357L110.479 14.9632L110.237 14.8398ZM109.546 14.8398L109.242 14.9615L109.281 15.1324H109.475L109.546 14.8398ZM107.777 7.01585L108.081 6.89421L107.949 6.31214L107.533 6.89421L107.777 7.01585ZM102.182 14.8398L102.111 15.1324H102.304L102.426 14.9615L102.182 14.8398ZM101.492 14.8398L101.188 14.9628L101.228 15.1324H101.42L101.492 14.8398ZM99.1914 5.54989H100.465L100.608 4.96474H99.3344L99.1914 5.54989ZM100.232 5.37839L101.991 13.2471L102.598 13.0049L100.84 5.13625L100.232 5.37839ZM102.539 13.2471L108.145 5.37839L107.656 5.13625L102.05 13.0049L102.539 13.2471ZM107.829 5.54989H108.519L108.662 4.96474H107.972L107.829 5.54989ZM108.287 5.37839L110.045 13.2471L110.653 13.0049L108.895 5.13625L108.287 5.37839ZM110.593 13.2471L116.199 5.37839L115.71 5.13625L110.104 13.0049L110.593 13.2471ZM115.883 5.54989H117.095L117.238 4.96474H116.026L115.883 5.54989ZM116.924 5.13395L109.994 14.7164L110.479 14.9632L117.41 5.38068L116.924 5.13395ZM110.308 14.5472H109.618L109.475 15.1324H110.165L110.308 14.5472ZM109.85 14.7182L108.081 6.89421L107.474 7.13749L109.242 14.9615L109.85 14.7182ZM107.533 6.89421L101.938 14.7182L102.426 14.9615L108.021 7.13749L107.533 6.89421ZM102.254 14.5472H101.563L101.42 15.1324H102.111L102.254 14.5472ZM101.795 14.7168L99.5662 5.13429L98.9595 5.38034L101.188 14.9628L101.795 14.7168Z" fill="white" mask="url(#path-1-outside-1_373_1974)"/>
</g>
<g style="mix-blend-mode:overlay">
<path d="M89.1785 7.83495L89.236 8.23867C89.3123 8.7748 89.6296 9.21638 90.1067 9.45057L90.2965 9.5437L90.0772 9.63682C89.5259 9.87101 89.0688 10.3126 88.8226 10.8487L88.6373 11.2524L88.5798 10.8487C88.5035 10.3126 88.1862 9.87101 87.7091 9.63683L87.5193 9.5437L87.7386 9.45057C88.2899 9.21638 88.747 8.7748 88.9932 8.23867L89.1785 7.83495Z" fill="#D9D9D9"/>
</g>
<g style="mix-blend-mode:overlay">
<path d="M89.1785 7.83495L89.236 8.23867C89.3123 8.7748 89.6296 9.21638 90.1067 9.45057L90.2965 9.5437L90.0772 9.63682C89.5259 9.87101 89.0688 10.3126 88.8226 10.8487L88.6373 11.2524L88.5798 10.8487C88.5035 10.3126 88.1862 9.87101 87.7091 9.63683L87.5193 9.5437L87.7386 9.45057C88.2899 9.21638 88.747 8.7748 88.9932 8.23867L89.1785 7.83495Z" fill="#D9D9D9"/>
</g>
</svg>
