<svg width="95" height="28" viewBox="0 0 95 28" fill="none" xmlns="http://www.w3.org/2000/svg">
<path d="M32.5 28C32.5 28 32.6531 20.8234 34.796 17.7816C36.6168 15.197 41 14 41 14C41 14 36.6168 12.803 34.796 10.2184C32.653 7.17663 32.5 1.16425e-06 32.5 1.16425e-06C32.5 1.16425e-06 32.3469 7.17663 30.204 10.2184C28.3832 12.803 24 14 24 14C24 14 28.3832 15.197 30.204 17.7816C32.3469 20.8234 32.5 28 32.5 28Z" fill="white"/>
<path d="M62.5 28C62.5 28 62.6531 20.8234 64.796 17.7816C66.6168 15.197 71 14 71 14C71 14 66.6168 12.803 64.796 10.2184C62.653 7.17663 62.5 1.16425e-06 62.5 1.16425e-06C62.5 1.16425e-06 62.3469 7.17663 60.204 10.2184C58.3832 12.803 54 14 54 14C54 14 58.3832 15.197 60.204 17.7816C62.3469 20.8234 62.5 28 62.5 28Z" fill="white"/>
</svg>
